<?xml version="1.0" encoding="iso-8859-1"?><!-- Generator: Adobe Illustrator 20.1.0, SVG Export Plug-In . SVG Version: 6.00 Build 0)  --><svg xmlns="http://www.w3.org/2000/svg" xmlns:xlink="http://www.w3.org/1999/xlink" viewBox="0 0 64 64" width="64px" height="64px"><linearGradient id="SVGID_1__44031" gradientUnits="userSpaceOnUse" x1="32" y1="7" x2="32" y2="55.8404" spreadMethod="reflect"><stop offset="0" style="stop-color:#1A6DFF"/><stop offset="1" style="stop-color:#C822FF"/></linearGradient><path style="fill:url(#SVGID_1__44031);" d="M54.996,37.446c-0.974-1.03-2.112-1.836-3.351-2.414C51.879,33.706,52,32.355,52,31  C52,18.317,41.683,8,29,8S6,18.317,6,31s10.317,23,23,23c3.32,0,6.504-0.692,9.485-2.047C40.504,54.421,43.57,56,47,56  c6.065,0,11-4.935,11-11C58,42.18,56.934,39.497,54.996,37.446z M29,52C17.421,52,8,42.579,8,31s9.421-21,21-21s21,9.421,21,21  c0,1.126-0.095,2.247-0.272,3.352C48.848,34.128,47.936,34,47,34c-6.065,0-11,4.935-11,11c0,1.91,0.491,3.706,1.35,5.273  C34.719,51.418,31.916,52,29,52z M47,54c-4.963,0-9-4.037-9-9s4.037-9,9-9c2.5,0,4.824,1.001,6.543,2.819  C55.127,40.498,56,42.692,56,45C56,49.963,51.963,54,47,54z"/><linearGradient id="SVGID_2__44031" gradientUnits="userSpaceOnUse" x1="48.5" y1="7" x2="48.5" y2="55.8404" spreadMethod="reflect"><stop offset="0" style="stop-color:#1A6DFF"/><stop offset="1" style="stop-color:#C822FF"/></linearGradient><polygon style="fill:url(#SVGID_2__44031);" points="52.793,41.793 47,47.586 44.207,44.793 42.793,46.207 47,50.414 54.207,43.207 "/><linearGradient id="SVGID_3__44031" gradientUnits="userSpaceOnUse" x1="20.041" y1="7" x2="20.041" y2="55.8404" spreadMethod="reflect"><stop offset="0" style="stop-color:#1A6DFF"/><stop offset="1" style="stop-color:#C822FF"/></linearGradient><path style="fill:url(#SVGID_3__44031);" d="M11.082,24.667l1.885,0.666c1.695-4.796,5.57-8.671,10.367-10.366  C25.15,14.325,27.057,14,29,14v-2c-2.171,0-4.302,0.364-6.332,1.082C17.307,14.976,12.976,19.307,11.082,24.667z"/><linearGradient id="SVGID_4__44031" gradientUnits="userSpaceOnUse" x1="20" y1="24.25" x2="20" y2="34.2695" spreadMethod="reflect"><stop offset="0" style="stop-color:#6DC7FF"/><stop offset="1" style="stop-color:#E6ABFF"/></linearGradient><circle style="fill:url(#SVGID_4__44031);" cx="20" cy="29" r="4"/><linearGradient id="SVGID_5__44031" gradientUnits="userSpaceOnUse" x1="38" y1="24.25" x2="38" y2="34.2695" spreadMethod="reflect"><stop offset="0" style="stop-color:#6DC7FF"/><stop offset="1" style="stop-color:#E6ABFF"/></linearGradient><circle style="fill:url(#SVGID_5__44031);" cx="38" cy="29" r="4"/><linearGradient id="SVGID_6__44031" gradientUnits="userSpaceOnUse" x1="29" y1="34.875" x2="29" y2="45.128" spreadMethod="reflect"><stop offset="0" style="stop-color:#6DC7FF"/><stop offset="1" style="stop-color:#E6ABFF"/></linearGradient><path style="fill:url(#SVGID_6__44031);" d="M34,36H24c-0.552,0-1,0.448-1,1v1c0,3.314,2.686,6,6,6s6-2.686,6-6v-1  C35,36.448,34.552,36,34,36z"/></svg>